<svg width="512" height="512" viewBox="0 0 512 512" fill="none" xmlns="http://www.w3.org/2000/svg">
<path d="M231.853 158.605C241.648 168.4 257.253 169.084 268.453 160.769L274.756 154.428L347.464 81.4165C355.095 73.785 363.98 67.1407 375.028 66.6091C395.265 65.0525 404.112 82.2898 404.074 99.8688V304.476C404.112 317.423 393.329 328.624 380.268 328.624C371.004 328.624 365.233 323.992 358.892 317.917C332.77 292.592 306.953 266.736 281.097 240.88L280.755 241.222L186.329 146.797L176.572 137.153C164.536 125.231 149.121 118.853 132.264 117.941C77.5522 114.752 51.9621 154.2 52 204.963V431.06C51.9621 476.128 91.8281 504.3 134.2 504.3C159.714 504.3 182.305 491.353 199.808 473.584L275.971 395.674L282.312 389.182C290.323 378.019 289.563 362.643 279.844 352.961C270.048 343.165 254.405 342.482 243.243 350.797L236.978 357.061L164.536 429.845C156.905 437.477 148.02 444.121 136.972 444.653C116.735 446.209 107.888 428.934 107.926 411.355V206.748C107.888 193.801 118.671 182.6 131.732 182.6C140.996 182.6 146.767 187.232 153.108 193.307C176.572 216.05 199.732 239.172 222.892 262.218L277.262 316.588L315.685 355.011L315.913 354.783L335.428 374.071C347.464 385.955 362.879 392.333 379.736 393.282C434.448 396.472 460.038 357.023 460 306.261V80.2395C460.038 35.172 420.21 7 377.8 7C352.286 7 329.695 19.947 312.192 37.7158L235.763 115.891L229.423 122.346C221.412 133.546 222.171 148.923 231.853 158.605Z" fill="url(#paint0_linear_1_2)"/>
<defs>
<linearGradient id="paint0_linear_1_2" x1="52" y1="7" x2="48823.6" y2="40020.7" gradientUnits="userSpaceOnUse">
<stop stop-color="#00FF9F"/>
<stop offset="0.5" stop-color="#00E88F"/>
<stop offset="1" stop-color="#00B86B"/>
</linearGradient>
</defs>
</svg>
