<svg width="400" height="400" viewBox="0 0 400 400" fill="none" xmlns="http://www.w3.org/2000/svg">
<path d="M400 0H0V400H400V0Z" fill="#0A0A0A"/>
<path d="M67.9609 245.069C92.9219 245.069 93.0322 271.022 93.0322 271.022V296.975H82.0528V271.022C82.0528 271.022 82.1631 256.048 67.9609 256.048C54.2122 256.048 53.9794 270.36 53.9794 271.022V296.975H43V245.069H53.9794V248.953C57.4227 246.625 61.9689 245.069 67.9609 245.069Z" fill="white"/>
<path d="M139.376 245.069H150.257V296.988H139.376V293.434C135.834 295.542 131.276 296.988 125.296 296.988C118.299 296.988 113.202 294.99 109.66 292.331C101.12 286.008 100.237 275.139 100.335 271.806C100.335 271.255 100.335 270.691 100.335 270.25C100.335 266.807 101.218 255.938 109.758 249.725C113.312 247.066 118.299 245.069 125.296 245.069C131.288 245.069 135.834 246.514 139.376 248.622V245.069ZM135.933 259.945C133.935 257.616 130.492 256.06 125.284 256.06C121.289 256.06 118.287 257.053 116.192 258.499C111.425 262.052 111.315 268.265 111.315 270.262C111.315 270.703 111.315 271.255 111.315 271.819C111.204 273.706 111.425 280.029 116.192 283.57C118.299 285.126 121.179 286.008 125.284 286.008C130.492 286.008 133.935 284.452 135.933 282.124C138.702 279.134 139.266 275.139 139.376 272.921V269.478C139.266 267.37 138.824 263.155 135.933 259.945Z" fill="white"/>
<path d="M192.263 245.068V256.048H172.853V278.46C172.853 278.46 172.633 286.008 179.728 286.008H192.373V296.988H178.392V296.877C161.984 295.995 161.862 278.46 161.862 278.46V256.06H157.426V245.081H161.862V232.092H172.841V245.068H192.263Z" fill="white"/>
<path d="M213.781 233.317C213.781 237.312 210.668 240.522 206.686 240.522C202.801 240.522 199.591 237.312 199.591 233.317C199.591 229.433 202.801 226.222 206.686 226.222C210.668 226.222 213.781 229.433 213.781 233.317ZM212.225 245.068V296.988H201.245V245.068H212.225Z" fill="white"/>
<path d="M220.974 245.069H232.835L246.266 277.235L259.684 245.069H267.011L280.319 277.235L293.737 245.069H305.721L283.983 296.988H276.777L263.36 264.822L249.942 296.988H242.614L220.974 245.069Z" fill="white"/>
<path d="M346.857 249.737C355.398 255.95 356.28 266.819 356.28 270.262C356.28 270.703 356.28 271.255 356.28 271.818C356.28 275.139 355.496 286.021 346.955 292.344C343.291 295.003 338.304 297 331.319 297C321.896 297 316.112 293.557 312.46 289.452C307.02 283.349 306.26 275.139 306.26 272.039V271.929C306.26 271.377 306.26 270.716 306.26 270.042C306.37 267.052 307.032 258.842 312.46 252.629C316.124 248.524 321.896 245.191 331.319 245.191C338.304 245.179 343.303 247.066 346.857 249.737ZM320.67 259.945C317.46 263.498 317.227 268.375 317.227 270.152V272.039C317.227 273.816 317.448 278.583 320.67 282.136C322.668 284.464 326.111 286.021 331.319 286.021C335.424 286.021 338.304 285.028 340.411 283.472C345.178 280.028 345.288 273.706 345.288 271.818C345.288 271.267 345.288 270.703 345.288 270.262C345.288 268.265 345.068 262.052 340.411 258.499C338.304 257.053 335.314 256.06 331.319 256.06C326.099 256.06 322.668 257.616 320.67 259.945Z" fill="white"/>
<path d="M191.071 103.385C194.391 106.706 199.68 106.937 203.477 104.119L230.257 77.223C232.843 74.6363 235.855 72.3843 239.599 72.2041C246.459 71.6765 249.457 77.519 249.444 83.4772V152.828C249.457 157.216 245.802 161.012 241.375 161.012C238.235 161.012 236.279 159.442 234.13 157.383C225.276 148.8 216.526 140.036 207.762 131.272L207.646 131.388L175.641 99.3832L172.334 96.1145C168.254 92.0737 163.03 89.9117 157.316 89.6028C138.772 88.5219 130.098 101.893 130.111 119.098V195.732C130.098 211.008 143.611 220.556 157.972 220.556C166.62 220.556 174.277 216.168 180.21 210.146L208.174 181.538C210.889 177.755 210.632 172.543 207.337 169.261C204.017 165.941 198.715 165.709 194.932 168.528L192.808 170.651L168.254 195.321C165.668 197.907 162.657 200.159 158.912 200.339C152.053 200.867 149.054 195.012 149.067 189.053V119.703C149.054 115.315 152.709 111.519 157.136 111.519C160.276 111.519 162.232 113.089 164.381 115.148C172.334 122.856 180.184 130.693 188.034 138.505L219.485 169.956L219.563 169.879L226.177 176.416C230.257 180.444 235.481 182.606 241.195 182.928C259.739 184.009 268.413 170.638 268.4 153.432V76.8241C268.413 61.5487 254.913 52 240.539 52C231.891 52 224.234 56.3883 218.302 62.4109L192.396 88.9079L190.247 91.0956C187.532 94.8919 187.789 100.104 191.071 103.385Z" fill="url(#paint0_linear_1_33)"/>
<defs>
<linearGradient id="paint0_linear_1_33" x1="130.111" y1="52.0004" x2="16660.9" y2="13614.4" gradientUnits="userSpaceOnUse">
<stop stop-color="#00FF9F"/>
<stop offset="0.5" stop-color="#00E88F"/>
<stop offset="1" stop-color="#00B86B"/>
</linearGradient>
</defs>
</svg>
