<?xml version="1.0" encoding="utf-8"?>
<svg version="1.1" id="Camada_1" xmlns="http://www.w3.org/2000/svg" xmlns:xlink="http://www.w3.org/1999/xlink" x="0px" y="0px"
	 viewBox="0 0 400 200" style="enable-background:new 0 0 400 200;" xml:space="preserve">
<defs>
	<!-- Fundo escuro -->
	<rect id="background" x="0" y="0" width="400" height="200" fill="#0A0A0A"/>

	<!-- Gradiente mais vibrante e visível -->
	<linearGradient id="greenGradientDark" x1="0%" y1="0%" x2="100%" y2="100%">
		<stop offset="0%" style="stop-color:#00FF9F;stop-opacity:1" />
		<stop offset="50%" style="stop-color:#00E88F;stop-opacity:1" />
		<stop offset="100%" style="stop-color:#00B86B;stop-opacity:1" />
	</linearGradient>
</defs>

<!-- Fundo escuro -->
<rect x="0" y="0" width="400" height="200" fill="#0A0A0A"/>

<style type="text/css">
	.st0{fill:url(#greenGradientDark);}
	.st1{fill:#FFFFFF;}
</style>

<!-- Logo N com gradiente mais vibrante -->
<path class="st0" d="M56.49,101.43L56.49,101.43L56.49,101.43z M58.87,74.11c2.58,2.58,6.69,2.76,9.64,0.57l1.66-1.67l19.15-19.23
	c2.01-2.01,4.35-3.76,7.26-3.9c5.33-0.41,7.66,4.13,7.65,8.76v53.89c0.01,3.41-2.83,6.36-6.27,6.36c-2.44,0-3.96-1.22-5.63-2.82
	c-6.88-6.67-13.68-13.48-20.49-20.29l-0.09,0.09L46.88,71l-2.57-2.54c-3.17-3.14-7.23-4.82-11.67-5.06
	c-14.41-0.84-21.15,9.55-21.14,22.92v59.55c-0.01,11.87,10.49,19.29,21.65,19.29c6.72,0,12.67-3.41,17.28-8.09l20.06-20.52
	l1.67-1.71c2.11-2.94,1.91-6.99-0.65-9.54c-2.58-2.58-6.7-2.76-9.64-0.57l-1.65,1.65l-19.08,19.17c-2.01,2.01-4.35,3.76-7.26,3.9
	c-5.33,0.41-7.66-4.14-7.65-8.77l0-53.89c-0.01-3.41,2.83-6.36,6.27-6.36c2.44,0,3.96,1.22,5.63,2.82
	c6.18,5.99,12.28,12.08,18.38,18.15l14.32,14.32l10.12,10.12l0.06-0.06l5.14,5.08c3.17,3.13,7.23,4.81,11.67,5.06
	c14.41,0.84,21.15-9.55,21.14-22.92V53.47c0.01-11.87-10.48-19.29-21.65-19.29c-6.72,0-12.67,3.41-17.28,8.09L59.9,62.86l-1.67,1.7
	C56.12,67.51,56.32,71.56,58.87,74.11L58.87,74.11z"/>

<!-- Texto NATIWO em cinza claro para dark mode -->
<g>
	<path class="st1" d="M153.71,86.18c20.37,0,20.46,21.18,20.46,21.18v21.18h-8.96v-21.18c0,0,0.09-12.22-11.5-12.22
		c-11.22,0-11.41,11.68-11.41,12.22v21.18h-8.96V86.18h8.96v3.17C145.11,87.45,148.82,86.18,153.71,86.18z"/>
	<path class="st1" d="M211.99,86.18h8.88v42.37h-8.88v-2.9c-2.89,1.72-6.61,2.9-11.49,2.9c-5.71,0-9.87-1.63-12.76-3.8
		c-6.97-5.16-7.69-14.03-7.61-16.75c0-0.45,0-0.91,0-1.27c0-2.81,0.72-11.68,7.69-16.75c2.9-2.17,6.97-3.8,12.68-3.8
		c4.89,0,8.6,1.18,11.49,2.9V86.18z M209.18,98.32c-1.63-1.9-4.44-3.17-8.69-3.17c-3.26,0-5.71,0.81-7.42,1.99
		c-3.89,2.9-3.98,7.97-3.98,9.6c0,0.36,0,0.81,0,1.27c-0.09,1.54,0.09,6.7,3.98,9.59c1.72,1.27,4.07,1.99,7.42,1.99
		c4.25,0,7.06-1.27,8.69-3.17c2.26-2.44,2.72-5.7,2.81-7.51v-2.81C211.9,104.38,211.54,100.94,209.18,98.32z"/>
	<path class="st1" d="M255.15,86.18v8.96h-15.84v18.29c0,0-0.18,6.16,5.61,6.16h10.23h0.09v8.96h-0.09h-11.32v-0.09
		c-13.39-0.72-13.49-15.03-13.49-15.03V95.15h-3.62v-8.96h3.62V75.59h8.96v10.59H255.15z"/>
	<path class="st1" d="M272.71,76.59c0,3.26-2.54,5.88-5.79,5.88c-3.17,0-5.79-2.62-5.79-5.88c0-3.17,2.62-5.79,5.79-5.79
		C270.17,70.8,272.71,73.42,272.71,76.59z M271.44,86.18v42.37h-8.96V86.18H271.44z"/>
	<path class="st1" d="M278.58,86.18h9.68l10.96,26.25l10.95-26.25h5.98l10.86,26.25l10.95-26.25h9.78L330,128.55h-5.88l-10.95-26.25
		l-10.95,26.25h-5.98L278.58,86.18z"/>
	<path class="st1" d="M381.31,89.99c6.97,5.07,7.69,13.94,7.69,16.75c0,0.36,0,0.81,0,1.27c0,2.71-0.64,11.59-7.61,16.75
		c-2.99,2.17-7.06,3.8-12.76,3.8c-7.69,0-12.41-2.81-15.39-6.16c-4.44-4.98-5.06-11.68-5.06-14.21v-0.09c0-0.45,0-0.99,0-1.54
		c0.09-2.44,0.63-9.14,5.06-14.21c2.99-3.35,7.7-6.07,15.39-6.07C374.33,86.27,378.41,87.81,381.31,89.99z M359.94,98.32
		c-2.62,2.9-2.81,6.88-2.81,8.33v1.54c0,1.45,0.18,5.34,2.81,8.24c1.63,1.9,4.44,3.17,8.69,3.17c3.35,0,5.7-0.81,7.42-2.08
		c3.89-2.81,3.98-7.97,3.98-9.51c0-0.45,0-0.91,0-1.27c0-1.63-0.18-6.7-3.98-9.6c-1.72-1.18-4.16-1.99-7.42-1.99
		C364.37,95.15,361.57,96.42,359.94,98.32z"/>
</g>
</svg>