<svg width="400" height="200" viewBox="0 0 400 200" fill="none" xmlns="http://www.w3.org/2000/svg">
<path d="M58.87 74.11C61.45 76.69 65.56 76.87 68.51 74.68L89.32 53.78C91.33 51.77 93.67 50.02 96.58 49.88C101.91 49.47 104.24 54.01 104.23 58.64V112.53C104.24 115.94 101.4 118.89 97.96 118.89C95.52 118.89 94 117.67 92.33 116.07C85.45 109.4 78.65 102.59 71.84 95.78L71.75 95.87L46.88 71L44.31 68.46C41.14 65.32 37.08 63.64 32.64 63.4C18.23 62.56 11.49 72.95 11.5 86.32V145.87C11.49 157.74 21.99 165.16 33.15 165.16C39.87 165.16 45.82 161.75 50.43 157.07L72.16 134.84C74.27 131.9 74.07 127.85 71.51 125.3C68.93 122.72 64.81 122.54 61.87 124.73L60.22 126.38L41.14 145.55C39.13 147.56 36.79 149.31 33.88 149.45C28.55 149.86 26.22 145.31 26.23 140.68V86.79C26.22 83.38 29.06 80.43 32.5 80.43C34.94 80.43 36.46 81.65 38.13 83.25C44.31 89.24 50.41 95.33 56.51 101.4L80.95 125.84L81.01 125.78L86.15 130.86C89.32 133.99 93.38 135.67 97.82 135.92C112.23 136.76 118.97 126.37 118.96 113V53.47C118.97 41.6 108.48 34.18 97.31 34.18C90.59 34.18 84.64 37.59 80.03 42.27L59.9 62.86L58.23 64.56C56.12 67.51 56.32 71.56 58.87 74.11Z" fill="url(#paint0_linear_1_13)"/>
<path d="M153.71 86.18C174.08 86.18 174.17 107.36 174.17 107.36V128.54H165.21V107.36C165.21 107.36 165.3 95.14 153.71 95.14C142.49 95.14 142.3 106.82 142.3 107.36V128.54H133.34V86.18H142.3V89.35C145.11 87.45 148.82 86.18 153.71 86.18Z" fill="white"/>
<path d="M211.99 86.18H220.87V128.55H211.99V125.65C209.1 127.37 205.38 128.55 200.5 128.55C194.79 128.55 190.63 126.92 187.74 124.75C180.77 119.59 180.05 110.72 180.13 108C180.13 107.55 180.13 107.09 180.13 106.73C180.13 103.92 180.85 95.05 187.82 89.98C190.72 87.81 194.79 86.18 200.5 86.18C205.39 86.18 209.1 87.36 211.99 89.08V86.18ZM209.18 98.32C207.55 96.42 204.74 95.15 200.49 95.15C197.23 95.15 194.78 95.96 193.07 97.14C189.18 100.04 189.09 105.11 189.09 106.74C189.09 107.1 189.09 107.55 189.09 108.01C189 109.55 189.18 114.71 193.07 117.6C194.79 118.87 197.14 119.59 200.49 119.59C204.74 119.59 207.55 118.32 209.18 116.42C211.44 113.98 211.9 110.72 211.99 108.91V106.1C211.9 104.38 211.54 100.94 209.18 98.32Z" fill="white"/>
<path d="M255.15 86.18V95.14H239.31V113.43C239.31 113.43 239.13 119.59 244.92 119.59H255.24V128.55H243.83V128.46C230.44 127.74 230.34 113.43 230.34 113.43V95.15H226.72V86.19H230.34V75.59H239.3V86.18H255.15Z" fill="white"/>
<path d="M272.71 76.59C272.71 79.85 270.17 82.47 266.92 82.47C263.75 82.47 261.13 79.85 261.13 76.59C261.13 73.42 263.75 70.8 266.92 70.8C270.17 70.8 272.71 73.42 272.71 76.59ZM271.44 86.18V128.55H262.48V86.18H271.44Z" fill="white"/>
<path d="M278.58 86.18H288.26L299.22 112.43L310.17 86.18H316.15L327.01 112.43L337.96 86.18H347.74L330 128.55H324.12L313.17 102.3L302.22 128.55H296.24L278.58 86.18Z" fill="white"/>
<path d="M381.31 89.99C388.28 95.06 389 103.93 389 106.74C389 107.1 389 107.55 389 108.01C389 110.72 388.36 119.6 381.39 124.76C378.4 126.93 374.33 128.56 368.63 128.56C360.94 128.56 356.22 125.75 353.24 122.4C348.8 117.42 348.18 110.72 348.18 108.19V108.1C348.18 107.65 348.18 107.11 348.18 106.56C348.27 104.12 348.81 97.42 353.24 92.35C356.23 89 360.94 86.28 368.63 86.28C374.33 86.27 378.41 87.81 381.31 89.99ZM359.94 98.32C357.32 101.22 357.13 105.2 357.13 106.65V108.19C357.13 109.64 357.31 113.53 359.94 116.43C361.57 118.33 364.38 119.6 368.63 119.6C371.98 119.6 374.33 118.79 376.05 117.52C379.94 114.71 380.03 109.55 380.03 108.01C380.03 107.56 380.03 107.1 380.03 106.74C380.03 105.11 379.85 100.04 376.05 97.14C374.33 95.96 371.89 95.15 368.63 95.15C364.37 95.15 361.57 96.42 359.94 98.32Z" fill="white"/>
<defs>
<linearGradient id="paint0_linear_1_13" x1="0" y1="0" x2="16000" y2="32000" gradientUnits="userSpaceOnUse">
<stop stop-color="#00FF9F"/>
<stop offset="0.5" stop-color="#00E88F"/>
<stop offset="1" stop-color="#00B86B"/>
</linearGradient>
</defs>
</svg>
